<?xml version="1.0" encoding="UTF-8"?>
<svg version="1.1" xmlns="http://www.w3.org/2000/svg" width="512" height="512">
<path d="M0 0 C1.28131011 -0.00445668 1.28131011 -0.00445668 2.58850527 -0.0090034 C5.44959777 -0.01767221 8.31064834 -0.01919709 11.17175293 -0.02069092 C13.22346587 -0.02532023 15.27517796 -0.03034504 17.32688904 -0.03573608 C22.89906469 -0.04884768 28.47122831 -0.05530215 34.04341698 -0.05974674 C37.52349891 -0.06267832 41.00357756 -0.06678321 44.48365784 -0.07125092 C55.36900362 -0.08492005 66.25434188 -0.09459064 77.13969564 -0.09845281 C89.71189558 -0.10293796 102.28398703 -0.12050952 114.85615396 -0.1494534 C124.57175371 -0.17104616 134.28732288 -0.18115573 144.00294638 -0.18249393 C149.807391 -0.1835433 155.61173356 -0.18947984 161.41615295 -0.20731354 C166.87280696 -0.22375349 172.32928172 -0.22596957 177.78595161 -0.21717453 C179.78988181 -0.21640208 181.79382149 -0.22077417 183.79772758 -0.23063278 C186.53065018 -0.24329104 189.26293194 -0.23750899 191.99584961 -0.22705078 C193.18869969 -0.23913539 193.18869969 -0.23913539 194.40564775 -0.25146413 C198.96114838 -0.21061506 201.87433692 0.32782714 205.4979248 3.14044189 C210.32306226 8.63573733 210.83880261 11.94119776 210.7869873 19.15216064 C210.4068383 23.08207939 209.11557615 25.2236304 206.4979248 28.14044189 C205.9822998 28.73856689 205.4666748 29.33669189 204.9354248 29.95294189 C201.39434281 32.87818354 197.01576344 32.28741604 192.68760681 32.28520203 C191.88355583 32.28872887 191.07950484 32.29225572 190.25108868 32.29588944 C187.54747295 32.30659329 184.84389243 32.31026041 182.14025879 32.31402588 C180.20532583 32.32033007 178.27039433 32.32709572 176.33546448 32.33428955 C172.16284423 32.34897193 167.99022964 32.36069185 163.81759453 32.37023735 C157.21541082 32.3856813 150.61327518 32.40963214 144.01112366 32.43513489 C125.23486368 32.50635444 106.45857584 32.56604987 87.68225098 32.61724854 C77.31657616 32.64558874 66.95094884 32.68099292 56.58532387 32.72390229 C50.02741287 32.75062333 43.46955561 32.76856054 36.91160095 32.77993953 C32.82156867 32.7890935 28.73160134 32.80646908 24.64160728 32.82611847 C22.75106075 32.83356506 20.86049752 32.83767328 18.96993637 32.83811378 C0.21407715 32.54152826 0.21407715 32.54152826 -16.5020752 40.14044189 C-25.61616868 49.60582806 -25.65288457 60.73761848 -25.63578796 73.15223694 C-25.6391863 74.96372216 -25.6391863 74.96372216 -25.64265329 76.81180304 C-25.64787791 80.15156518 -25.64863998 83.49127336 -25.64745891 86.83103573 C-25.64725442 90.43782187 -25.65277831 94.04460004 -25.65751648 97.65138245 C-25.6658129 104.71306566 -25.66857086 111.77474052 -25.66912886 118.8364282 C-25.66960448 124.57797714 -25.67166155 130.31952333 -25.67482948 136.0610714 C-25.68363318 152.34896753 -25.68824929 168.63685708 -25.68749901 184.92475561 C-25.68743907 186.24110406 -25.68743907 186.24110406 -25.68737793 187.58404541 C-25.68731661 188.90200595 -25.68731661 188.90200595 -25.68725405 190.24659195 C-25.68684762 204.48516042 -25.69641701 218.72370244 -25.7105163 232.96226326 C-25.72488801 247.59167558 -25.73178605 262.22107501 -25.73092252 276.85049456 C-25.73059083 285.06004274 -25.73332554 293.26956319 -25.74410057 301.479105 C-25.75321602 308.46884187 -25.75537223 315.45853845 -25.74859115 322.4482787 C-25.74533126 326.01203835 -25.74525 329.57572071 -25.7539444 333.13947296 C-25.76328721 337.00891618 -25.75701951 340.87824718 -25.74931335 344.74769592 C-25.75445692 345.86551337 -25.75960048 346.98333081 -25.76489991 348.13502151 C-25.7164972 359.15140274 -24.63510738 368.54369265 -16.9005127 376.86309814 C-9.16644032 384.04978184 -1.0863894 384.5804285 9.0475769 384.52812195 C10.92772238 384.53620025 10.92772238 384.53620025 12.84585059 384.54444176 C16.30882811 384.55885481 19.77156679 384.55466474 23.23455715 384.54727495 C26.97563325 384.54253524 30.71665828 384.55506024 34.4577179 384.56529236 C41.78064239 384.58247026 49.10348103 384.58332243 56.42642044 384.57807945 C62.38010034 384.57403448 68.33375492 384.5754852 74.28743362 384.58082771 C75.13549838 384.58157614 75.98356313 384.58232456 76.85732681 384.58309566 C78.58029623 384.58462717 80.30326565 384.58616552 82.02623506 384.58771063 C98.17657152 384.60143213 114.32685951 384.59600054 130.47719486 384.58452541 C145.24275852 384.57459439 160.00819684 384.58753205 174.77374117 384.61145961 C189.94560226 384.63585981 205.11740499 384.64545615 220.2892853 384.63880688 C228.80289328 384.63531658 237.3164049 384.63753418 245.82999802 384.65505791 C253.07776865 384.66979145 260.32537506 384.67040037 267.57314251 384.652987 C271.26862609 384.64448385 274.96381643 384.64231032 278.65928459 384.65763855 C282.67119505 384.67407285 286.68240028 384.65931752 290.69430542 384.64164734 C291.85424117 384.65125235 293.01417693 384.66085735 294.20926225 384.67075342 C302.8929752 384.59216055 309.54774953 382.74904821 316.8104248 377.95294189 C323.68447288 370.75917065 325.64943438 363.74936564 325.63595581 354.03109741 C325.63877709 353.20703553 325.64159837 352.38297365 325.64450514 351.5339402 C325.65284738 348.76881277 325.65418907 346.00372541 325.65563965 343.23858643 C325.66030809 341.2576079 325.6654517 339.27663045 325.67103577 337.2956543 C325.68231574 333.0275495 325.69075036 328.75945168 325.697155 324.49133682 C325.70783208 317.74315029 325.72807558 310.99501394 325.75027466 304.24685669 C325.81221065 285.0569488 325.86623206 265.86704396 325.89929199 246.67706299 C325.91762796 236.08030949 325.94654948 225.48364013 325.9872967 214.88694847 C326.00838073 209.27865673 326.02382599 203.67047107 326.02610397 198.0621376 C326.02824891 192.78766432 326.04410265 187.51341204 326.0704937 182.23900604 C326.07769352 180.30324141 326.07978436 178.36745001 326.07639122 176.43167496 C326.07249855 173.78877248 326.08694435 171.14657656 326.10592651 168.50375366 C326.10039682 167.73798763 326.09486712 166.97222161 326.08916986 166.18325055 C326.16159861 160.34029775 327.69056321 156.46419251 331.2479248 151.89044189 C335.6024153 148.50361595 340.11575509 147.91959299 345.4979248 148.14044189 C350.75502516 148.81360718 354.24469239 150.96299573 357.4979248 155.14044189 C359.71766052 159.49039781 359.78216859 163.58807198 359.75862122 168.36763 C359.76244676 169.19239647 359.76627231 170.01716293 359.77021378 170.86692232 C359.78052695 173.62881477 359.77655474 176.39049866 359.77258301 179.15240479 C359.7769306 181.1336486 359.7821139 183.11489074 359.78807068 185.09613037 C359.80147168 190.47871868 359.80203776 195.86123681 359.79950738 201.24383855 C359.7984377 205.74140819 359.80332132 210.23896364 359.8081128 214.73653024 C359.81921332 225.35416979 359.81964333 235.97177396 359.81359863 246.5894165 C359.80756724 257.52688926 359.81984741 268.46423311 359.8411687 279.40168387 C359.85881588 288.80147814 359.86478086 298.20123151 359.86153096 307.60104173 C359.8597218 313.21064184 359.86231692 318.82015013 359.8762455 324.42973518 C359.88886871 329.71159886 359.8868373 334.9932628 359.87383461 340.2751236 C359.87147847 342.20676937 359.87416875 344.13842939 359.88245773 346.07005882 C359.95942909 365.41239168 356.62698358 381.15650506 343.4979248 396.14044189 C342.96554199 396.75532471 342.43315918 397.37020752 341.88464355 398.00372314 C332.71483589 407.87385025 318.47717089 415.6029678 304.86684042 416.26924306 C303.91639505 416.27103163 302.96594967 416.2728202 301.98670292 416.27466297 C300.33359123 416.28134974 300.33359123 416.28134974 298.64708334 416.28817159 C297.44165756 416.28798723 296.23623179 416.28780286 294.99427795 416.28761292 C293.70948121 416.2912896 292.42468446 416.29496629 291.10095447 416.29875439 C287.53638091 416.30875358 283.97182419 416.31248784 280.4072386 416.3151437 C276.5617531 416.31905302 272.71628085 416.32863102 268.87080383 416.33735657 C259.58390245 416.35710472 250.297 416.36718574 241.01008287 416.37608436 C236.63310911 416.38047053 232.25613655 416.38583654 227.87916374 416.39107323 C213.32237404 416.40808493 198.76558508 416.42257763 184.20878696 416.42982197 C180.43252626 416.43173176 176.65626556 416.43365211 172.88000488 416.43560791 C171.47220326 416.43633352 171.47220326 416.43633352 170.0359612 416.43707379 C154.84289553 416.44536857 139.64990873 416.47069641 124.45687748 416.50318859 C108.8466587 416.53629982 93.23647995 416.55427446 77.62622589 416.55746621 C68.86651114 416.5596277 60.10691136 416.56832317 51.34723091 416.59392738 C43.88469038 416.61569009 36.42229275 416.62365757 28.95972408 416.6139606 C25.15641773 416.60943177 21.35340588 416.61121867 17.55014038 416.63072205 C13.41469721 416.65174436 9.27990022 416.6413175 5.14442444 416.62818909 C3.36640051 416.64464296 3.36640051 416.64464296 1.55245692 416.66142923 C-15.26911991 416.53318535 -29.93539792 410.3459785 -42.1192627 398.76934814 C-46.66888772 393.74984382 -50.58118672 388.26245244 -53.5020752 382.14044189 C-54.13400064 380.84615768 -54.13400064 380.84615768 -54.77869225 379.52572632 C-60.0988283 366.4435073 -59.21651364 352.62343384 -59.15569854 338.73467255 C-59.14428827 334.8736286 -59.16189519 331.01269389 -59.17559814 327.15167236 C-59.19773288 319.6067228 -59.19307323 312.06202311 -59.17853494 304.51706409 C-59.167204 298.38051632 -59.16572839 292.24403816 -59.17115402 286.10748291 C-59.17192019 285.23128123 -59.17268635 284.35507955 -59.17347573 283.4523263 C-59.1750745 281.67186926 -59.17669557 279.89141224 -59.17833869 278.11095524 C-59.19256758 261.44869315 -59.17624849 244.78656902 -59.14933686 228.12432957 C-59.12700068 213.85358965 -59.13088161 199.58305315 -59.15393066 185.31231689 C-59.18073935 168.70624193 -59.19119455 152.10028762 -59.17586935 135.49419403 C-59.17427674 133.72059633 -59.17270489 131.94699861 -59.17115402 130.17340088 C-59.17038264 129.30094931 -59.16961127 128.42849774 -59.16881651 127.52960825 C-59.16451469 121.40644826 -59.17175317 115.28336534 -59.18355179 109.16021729 C-59.19763181 101.68947115 -59.19366201 94.21898739 -59.16714807 86.74827099 C-59.15408331 82.94271102 -59.14873034 79.13758716 -59.16539383 75.33203125 C-59.24495625 55.49178862 -58.80799497 39.58280528 -46.5020752 23.14044189 C-45.92973145 22.36184814 -45.3573877 21.58325439 -44.7677002 20.78106689 C-33.87064599 7.27617066 -17.12229846 -0.01865637 0 0 Z " fill="#3C65D0" transform="translate(90.5020751953125,63.85955810546875)"/>
<path d="M0 0 C0.90325516 -0.00686325 1.80651031 -0.0137265 2.73713684 -0.02079773 C5.71318434 -0.03904833 8.68870364 -0.03522983 11.66479492 -0.02954102 C13.7421638 -0.03410444 15.81953118 -0.0394105 17.89689636 -0.04542542 C22.24870947 -0.05435373 26.60033905 -0.05193744 30.95214844 -0.04199219 C36.51374559 -0.03051744 42.0747064 -0.05069281 47.63621998 -0.07990932 C51.9266509 -0.09830821 56.21693048 -0.09797124 60.50739098 -0.0922718 C62.55699238 -0.09211896 64.60660428 -0.09813232 66.65616798 -0.11056328 C69.53029175 -0.12553678 72.40325486 -0.11474866 75.27734375 -0.09765625 C76.11452942 -0.10732422 76.95171509 -0.11699219 77.81427002 -0.12695312 C86.35832058 -0.02121435 94.59600125 3.49554097 100.83276367 9.40405273 C106.99783108 17.07487393 109.13369932 23.88340601 109.12329102 33.60302734 C109.13000824 34.50949509 109.13672546 35.41596283 109.14364624 36.34989929 C109.16258732 39.33545466 109.16654821 42.32078484 109.16870117 45.30639648 C109.17513084 47.38855582 109.18185933 49.47071425 109.18887329 51.5528717 C109.20083563 55.91303604 109.20455509 60.2731212 109.20336914 64.63330078 C109.2031658 70.21300078 109.23048904 75.79219235 109.26491356 81.37177181 C109.28717648 85.670683 109.29120689 89.96947159 109.29014969 94.26843452 C109.29250574 96.32527992 109.30132949 98.3821287 109.31681442 100.43891716 C109.33646562 103.31819965 109.33064005 106.19638244 109.31860352 109.07568359 C109.32984253 109.92005981 109.34108154 110.76443604 109.35266113 111.63439941 C109.29200006 117.36053551 108.12964277 120.6925318 104.83276367 125.40405273 C99.59083087 129.46655066 93.17212036 129.16035668 86.83276367 128.40405273 C82.79358443 127.14978128 80.39107044 125.33285838 78.17619324 121.64816284 C76.75117334 118.20702863 76.43882376 115.8282448 76.40039062 112.12329102 C76.38059647 110.90247833 76.36080231 109.68166565 76.34040833 108.42385864 C76.33082344 106.46885941 76.33082344 106.46885941 76.32104492 104.47436523 C76.30418312 103.11528922 76.28603087 101.75622866 76.26664734 100.39718628 C76.21930343 96.83643422 76.18939376 93.27574484 76.16320801 89.71478271 C76.13332313 86.07462186 76.08682025 82.43467661 76.04174805 78.79467773 C75.95589307 71.66459312 75.88846909 64.53444185 75.83276367 57.40405273 C74.91062262 58.32895917 73.98848156 59.2538656 73.03839684 60.20679951 C51.14940001 82.16076672 29.2526593 104.10697708 7.346347 126.0436654 C4.65019308 128.74357145 1.95410463 131.44354286 -0.74194336 134.14355469 C-1.27868016 134.68107842 -1.81541695 135.21860214 -2.3684185 135.77241447 C-11.05957035 144.47662102 -19.74540757 153.18611245 -28.42929299 161.89756779 C-37.33956053 170.83588771 -46.25551391 179.76850623 -55.17677343 188.69585532 C-60.68169516 194.20489383 -66.18213144 199.71833376 -71.67691688 205.23748269 C-75.89046103 209.46875597 -80.11188983 213.69207226 -84.33633041 217.91246986 C-86.06833504 219.6453009 -87.7977636 221.38071114 -89.52442932 223.11886215 C-91.88015693 225.48949046 -94.24493202 227.85071013 -96.61221313 230.20979309 C-97.29510678 230.90142526 -97.97800042 231.59305743 -98.68158782 232.30564815 C-103.48780785 237.06693835 -108.02230169 240.83007391 -115.10473633 240.84155273 C-121.52213274 240.61959767 -125.09003703 238.53451355 -129.60473633 233.90405273 C-131.87740779 228.81326866 -132.40783562 223.86002165 -131.16723633 218.40405273 C-127.48057357 212.51517603 -122.63479667 207.58850035 -117.72610474 202.72241211 C-116.99818942 201.99278794 -116.2702741 201.26316378 -115.52030075 200.51142979 C-113.09759768 198.08545145 -110.66785139 195.66665696 -108.23803711 193.24780273 C-106.49290216 191.50323232 -104.74820826 189.75822061 -103.00392151 188.01280212 C-99.25663762 184.26506386 -95.50632502 180.52039746 -91.75317764 176.77853394 C-86.32686796 171.36852781 -80.90613626 165.95296051 -75.48671888 160.53605115 C-66.69240425 151.74610603 -57.89363927 142.9606299 -49.09204102 134.17797852 C-40.54574306 125.65005867 -32.00156317 117.12002582 -23.46020508 108.5871582 C-22.9330832 108.06056177 -22.40596133 107.53396534 -21.86286606 106.99141145 C-19.2182748 104.3494304 -16.57372493 101.70740792 -13.92919564 99.06536484 C7.98504435 77.17183415 29.90659542 55.28563769 51.83276367 33.40405273 C50.70976112 33.39858429 50.70976112 33.39858429 49.56407166 33.39300537 C42.48751599 33.35504285 35.41142213 33.29809724 28.33521175 33.22014999 C24.69774076 33.18074274 21.06050939 33.14852165 17.42285156 33.13305664 C13.90825216 33.11784481 10.39431179 33.0833212 6.88000679 33.03574371 C4.89552475 33.01381903 2.91085654 33.01158289 0.92625427 33.00970459 C-5.94280928 32.89874826 -10.64564733 32.65785228 -16.16723633 28.40405273 C-20.44248528 23.02551373 -19.90759438 15.94249576 -19.16723633 9.40405273 C-15.33509775 0.85543591 -8.46754698 -0.04520313 0 0 Z " fill="#3C65D0" transform="translate(371.167236328125,31.595947265625)"/>
</svg>
